<svg xmlns="http://www.w3.org/2000/svg" width="375" viewBox="0 0 375 375" height="375" version="1.0"><path fill="#FEE3EC" d="M 187.5 0 C 84.449219 0 0 85.179688 0 188.230469 C 0 290.6875 83.679688 375 187.5 375 C 291.191406 375 375 290.8125 375 188.230469 C 375 85.179688 290.550781 0 187.5 0 Z M 220.457031 349.730469 C 209.914062 351.929688 198.707031 353.027344 187.5 353.027344 C 176.292969 353.027344 165.085938 351.929688 154.539062 349.730469 L 154.539062 298.316406 C 154.539062 286.011719 157.835938 281.617188 162.230469 275.683594 C 164.46875 273.125 165.820312 270.832031 175.851562 255.691406 L 158.933594 253.050781 C 115.429688 246.679688 98.289062 224.046875 91.476562 206.46875 C 82.6875 182.960938 87.304688 153.515625 103.125 134.839844 C 105.542969 131.980469 107.519531 127.148438 105.761719 122.09375 C 102.464844 111.984375 102.90625 95.945312 105.101562 89.792969 C 116.753906 91.457031 128.730469 99.804688 138.722656 105.835938 C 143.324219 108.519531 145.742188 107.8125 147.949219 108.03125 C 155.976562 106.363281 168.5 102.320312 187.71875 102.320312 C 199.585938 102.320312 212.109375 104.074219 224.414062 107.589844 C 226.617188 107.539062 230.152344 109.410156 236.28125 105.835938 C 246.722656 99.472656 258.296875 91.414062 269.898438 89.792969 C 272.09375 95.945312 272.535156 111.984375 269.238281 122.09375 C 267.480469 127.148438 269.457031 131.980469 271.878906 134.839844 C 287.695312 153.515625 292.3125 182.960938 283.523438 206.46875 C 276.710938 224.046875 259.570312 246.679688 216.0625 253.050781 L 199.148438 255.691406 C 209.519531 271.339844 210.613281 273.214844 212.769531 275.683594 C 217.164062 281.617188 220.457031 286.011719 220.457031 298.316406 Z M 242.429688 343.359375 L 242.429688 298.316406 C 242.429688 285.789062 239.792969 277.441406 236.277344 271.289062 C 269.675781 262.28125 293.410156 242.503906 303.953125 214.160156 C 315.160156 184.277344 310.109375 148.679688 291.429688 124.070312 C 294.726562 109.351562 294.726562 85.839844 286.816406 74.851562 C 283.300781 70.019531 278.464844 67.382812 272.316406 67.382812 C 272.09375 67.382812 272.09375 67.382812 272.09375 67.382812 C 255.058594 68.304688 241.648438 76.882812 227.269531 85.617188 C 214.085938 82.101562 200.683594 80.347656 187.28125 80.347656 C 173.660156 80.347656 160.035156 82.324219 147.953125 85.617188 C 132.816406 76.492188 119.535156 68.28125 102.027344 67.382812 C 96.535156 67.382812 91.699219 70.019531 88.183594 74.851562 C 80.273438 85.839844 80.273438 109.351562 83.570312 124.070312 C 64.890625 148.679688 59.839844 184.496094 71.042969 214.160156 C 81.589844 242.503906 105.324219 262.28125 138.722656 271.289062 C 135.996094 276.058594 133.839844 282.210938 132.988281 290.539062 C 126.242188 292.867188 120.390625 293.625 114.949219 292.023438 C 109.210938 290.328125 104.738281 286.496094 100.855469 279.960938 C 92.128906 265.300781 77.265625 253.335938 60.34375 254.890625 L 62.273438 276.777344 C 70.109375 276.058594 77.910156 284.351562 81.960938 291.1875 C 88.644531 302.441406 97.648438 309.824219 108.726562 313.097656 C 116.953125 315.519531 124.472656 315.460938 132.566406 313.734375 L 132.566406 343.359375 C 68.628906 320.945312 21.972656 259.863281 21.972656 188.230469 C 21.972656 97.265625 96.535156 21.972656 187.5 21.972656 C 278.464844 21.972656 353.027344 97.265625 353.027344 188.230469 C 353.027344 259.863281 306.371094 320.945312 242.429688 343.359375 Z M 242.429688 343.359375"/></svg>